<svg width="400" height="200" viewBox="0 0 400 200" xmlns="http://www.w3.org/2000/svg"><rect width="400" height="200" rx="16" fill="#0a1628"/><path d="M200 20 C175 20 155 40 155 65 C155 95 200 140 200 140 C200 140 245 95 245 65 C245 40 225 20 200 20 Z" fill="#c9a84c"/><rect x="178" y="37" width="44" height="54" rx="4" fill="#0a1628"/><rect x="182" y="37" width="6" height="54" rx="2" fill="#1a3a5c"/><rect x="192" y="48" width="24" height="3" rx="1" fill="#c9a84c"/><rect x="192" y="57" width="18" height="3" rx="1" fill="#c9a84c" opacity="0.6"/><rect x="192" y="66" width="21" height="3" rx="1" fill="#c9a84c" opacity="0.6"/><rect x="192" y="75" width="15" height="3" rx="1" fill="#c9a84c" opacity="0.6"/><path d="M210 78 L218 70 L222 74 L214 82 Z" fill="#c9a84c"/><path d="M218 70 L222 66 L226 70 L222 74 Z" fill="#c9a84c"/><text x="200" y="165" text-anchor="middle" font-family="'Helvetica Neue', Arial, sans-serif" font-size="36" font-weight="700" letter-spacing="1"><tspan fill="#ffffff">Field</tspan><tspan fill="#c9a84c">Quote</tspan></text><text x="200" y="185" text-anchor="middle" font-family="'Helvetica Neue', Arial, sans-serif" font-size="11" fill="#6a7a8a" letter-spacing="3">PLUMBING CONTRACTOR TOOLS</text></svg>
